<?xml version="1.0" encoding="utf-8"?>
<!-- Generator: Adobe Illustrator 23.0.2, SVG Export Plug-In . SVG Version: 6.00 Build 0)  -->
<svg version="1.1" id="レイヤー_1" xmlns="http://www.w3.org/2000/svg" xmlns:xlink="http://www.w3.org/1999/xlink" x="0px"
	 y="0px" viewBox="0 0 960 540" style="enable-background:new 0 0 960 540;" xml:space="preserve">
<style type="text/css">
	.st0{fill:#FFFFFF;}
</style>
<g>
	<rect x="77.78" y="172.89" class="st0" width="127.74" height="233.48"/>
	<polygon class="st0" points="486.36,333.32 397.97,172.89 578.58,172.89 	"/>
	<path class="st0" d="M601.11,325.85V172.89h126.53v233.48h-14.13c-22.74,0-42.58-3.23-59.53-9.69c-8.61-3.23-16.14-7.16-22.6-11.81
		c-6.46-4.64-11.98-9.99-16.55-16.04C605.68,356.59,601.11,342.27,601.11,325.85z"/>
	<rect x="754.48" y="172.89" class="st0" width="127.74" height="233.48"/>
	<g>
		<path class="st0" d="M366.89,172.88H228.04l108.63,199.45c5.04-1.52,10.38-2.33,15.89-2.33c30.49,0,55.16,24.71,55.16,55.16
			c0,11.22-3.35,21.67-9.09,30.39c7.84-5.81,13.25-10.17,16.29-13.05c4.43-4.19,8.55-8.48,12.3-12.91c4.19-5,8.89-11.19,14.13-18.59
			c3.79-5.37,8.31-12.98,13.62-22.78c5.31-9.84,10.28-19.43,14.84-28.87L366.89,172.88z"/>
		
			<ellipse transform="matrix(0.9223 -0.3864 0.3864 0.9223 -136.893 169.2413)" class="st0" cx="352.57" cy="425.17" rx="40.83" ry="40.83"/>
	</g>
	
		<ellipse transform="matrix(0.2282 -0.9736 0.9736 0.2282 265.9654 563.2801)" class="st0" cx="488.27" cy="113.88" rx="40.87" ry="40.87"/>
	
		<ellipse transform="matrix(0.9223 -0.3864 0.3864 0.9223 19.5512 325.0354)" class="st0" cx="818.35" cy="113.88" rx="40.87" ry="40.87"/>
	
		<ellipse transform="matrix(0.987 -0.161 0.161 0.987 -9.6676 108.428)" class="st0" cx="664.37" cy="113.88" rx="40.87" ry="40.87"/>
	
		<ellipse transform="matrix(0.9223 -0.3864 0.3864 0.9223 -33.0005 63.5759)" class="st0" cx="141.65" cy="113.88" rx="40.87" ry="40.87"/>
</g>
</svg>
