<svg version="1.1" id="_x32_" xmlns="http://www.w3.org/2000/svg" xmlns:xlink="http://www.w3.org/1999/xlink" x="0px" y="0px" viewBox="0 0 512 512" style="width: 64px; height: 64px; opacity: 1;" xml:space="preserve">
<style type="text/css">
	.st0{fill:#fff;}
</style>
<g>
	<path class="st0" d="M508.854,75.71c-4.547-17.77-13.829-33.701-26.342-46.214C464.393,11.291,439.008,0,411.35,0h-310.7
		c-27.744,0-53.128,11.29-71.231,29.496C16.89,42.009,7.624,57.94,3.06,75.71C1.06,83.666,0,92.068,0,100.65v43.41V411.35
		c-0.086,27.658,11.299,53.034,29.419,71.154C47.522,500.709,72.906,512,100.65,512h310.7c27.658,0,53.042-11.291,71.162-29.496
		C500.632,464.384,512,439.008,512,411.35V143.975V100.65C512,92.068,510.957,83.666,508.854,75.71z M450.735,411.35
		c-0.086,10.94-4.376,20.658-11.555,27.829c-7.266,7.18-16.889,11.556-27.83,11.556h-310.7c-11.026,0-20.65-4.376-27.915-11.556
		c-7.18-7.171-11.47-16.889-11.47-27.829V199.983l126.82,115.615c19.163,17.504,43.59,26.256,67.829,26.256
		c24.325,0,48.752-8.752,67.915-26.256l126.906-115.701V411.35z M450.735,128.658L288.393,276.743
		c-9.196,8.487-20.751,12.598-32.478,12.598c-11.641,0-23.196-4.111-32.376-12.598l-162.274-148V100.65
		c0-10.94,4.29-20.658,11.47-27.829C80,65.641,89.624,61.265,100.65,61.265h310.7c10.94,0,20.564,4.376,27.83,11.555
		c7.179,7.171,11.469,16.889,11.555,27.829V128.658z" style="fill: fff;"></path>
</g>
</svg>
